<?xml version="1.0" encoding="UTF-8"?>
<svg id="Layer_2" data-name="Layer 2" xmlns="http://www.w3.org/2000/svg" viewBox="0 0 367.55 94.09">
  <g id="logo">
    <path d="M157.53,46.81c.35.24.7.32,1.03.27.34-.06.6-.24.79-.54.19-.32.25-.64.16-.98-.09-.33-.32-.63-.7-.88-.25-.16-.48-.27-.71-.3-.25-.03-.47,0-.67.09-.2.1-.36.24-.49.45-.19.28-.24.6-.18.93.06.34.31.66.77.97h0ZM157.25,47.22c-.49-.33-.8-.73-.9-1.19-.11-.46-.02-.91.25-1.35.18-.28.41-.49.69-.63s.57-.2.88-.16c.31.05.62.16.92.36s.53.45.69.74c.16.28.24.59.21.89-.02.32-.12.61-.28.87-.18.3-.42.51-.7.64-.28.14-.57.19-.89.16-.31-.04-.59-.16-.86-.33h-.01ZM0,18.64h3.4v14.96c0,1.33.48,2.43,1.43,3.29.96.86,2.23,1.29,3.81,1.29,1.67,0,2.98-.42,3.93-1.25.96-.84,1.44-1.98,1.44-3.4v-14.89h3.41v15.2c0,2.21-.78,3.93-2.35,5.18-1.56,1.24-3.69,1.85-6.4,1.85s-4.91-.6-6.41-1.81c-1.51-1.21-2.26-2.96-2.26-5.23,0,0,0-15.19,0-15.19ZM38.59,40.81l-12.84-16v15.69h-3.23v-21.86h1.35l12.49,15.14v-15.14h3.23v22.18h-1ZM45.22,40.5v-21.86h3.4v21.86h-3.4ZM57.7,21.33v6.06h8.71v2.53h-8.71v10.57h-3.4v-21.86h15.33v2.69h-11.93ZM86.26,40.5l-6.61-9.38c-.76,0-1.95-.05-3.6-.15v9.53h-3.4v-21.88c.13,0,1-.04,2.64-.11,1.63-.07,2.82-.11,3.57-.11,5.97,0,8.95,2.09,8.95,6.28,0,1.38-.47,2.61-1.44,3.72-.96,1.1-2.1,1.79-3.42,2.05l7.19,10.06h-3.88ZM76.05,21.29v7.13c.82.1,1.6.15,2.37.15,2.02,0,3.51-.29,4.43-.87.93-.57,1.39-1.6,1.39-3.1,0-1.23-.5-2.11-1.49-2.64-1-.55-2.56-.81-4.7-.81-.35,0-1.01.05-2,.15h0ZM106.82,40.5l-1.71-4.62h-9.28l-1.85,4.62h-3.78l10.09-22.16h.91l9.37,22.16h-3.75ZM100.6,24.08l-3.87,9.6h7.41s-3.54-9.6-3.54-9.6ZM129.23,40.81l-12.85-16v15.69h-3.23v-21.86h1.36l12.49,15.14v-15.14h3.23v22.18h-1ZM134.45,40.5v-.75l10.65-18.42h-10.65v-2.69h15.3v.75l-10.69,18.43h11.07v2.68h-15.68ZM114.32,4.66l.39-.25,1.07,1.75c.18.31.3.58.34.8.04.23.02.44-.09.67-.1.23-.3.43-.58.61-.27.18-.53.27-.76.28-.24,0-.44-.04-.63-.19-.19-.13-.39-.36-.58-.69l-1.07-1.75.39-.25,1.06,1.75c.16.27.31.45.43.54.13.1.26.15.42.14.16,0,.31-.07.49-.17.28-.18.44-.38.48-.59s-.06-.51-.29-.89l-1.07-1.76h0ZM117.28,6.99l-1.47-3.25.42-.21,2.82,1.77-1.16-2.55.41-.19,1.47,3.25-.42.2-2.82-1.76,1.17,2.55-.41.19h0ZM120.7,5.35l-1.2-3.37.44-.16,1.19,3.37-.43.16h0ZM122.93,4.73l-2.26-3.07.48-.14,1.57,2.25c.12.18.23.35.33.51,0-.2,0-.41.02-.62l.2-2.76.45-.14-.33,3.83s-.46.14-.46.14ZM125.19,4.09l-.55-3.54,2.48-.4.07.42-2.03.33.17,1.09,1.9-.31.07.41-1.89.31.18,1.21,2.11-.34.06.41-2.57.42h0ZM128.59,3.63l-.13-3.58,1.53-.05c.32,0,.55.02.72.07.16.06.29.17.39.32.1.16.15.34.16.54,0,.26-.06.48-.22.66-.16.17-.39.29-.72.35.12.06.21.12.27.17.15.13.28.28.4.46l.64.96-.58.02-.49-.73c-.13-.21-.26-.37-.35-.48-.09-.11-.17-.18-.24-.23-.06-.05-.13-.07-.2-.09-.06,0-.14-.02-.27,0l-.53.02.06,1.59h-.46.02ZM128.98,1.62l.99-.03c.21,0,.37-.03.49-.09.12-.04.21-.12.27-.22.06-.1.08-.21.08-.32,0-.17-.07-.31-.2-.42-.13-.1-.31-.15-.57-.14l-1.09.04.04,1.18h-.01ZM131.97,2.4h.43c0,.17.05.32.11.44.07.12.18.22.34.31.16.08.33.14.52.14.18,0,.33,0,.48-.04.13-.04.24-.11.31-.2.07-.09.12-.18.12-.3.02-.1,0-.21-.07-.3-.06-.09-.16-.16-.3-.23-.09-.05-.29-.12-.61-.22-.32-.1-.54-.19-.66-.28-.16-.1-.27-.22-.35-.35-.07-.14-.1-.29-.09-.46,0-.18.07-.35.19-.49.11-.15.26-.25.46-.32.19-.07.41-.09.65-.07.26,0,.48.07.67.17s.33.24.43.42c.1.18.14.36.14.57h-.44c0-.23-.07-.4-.2-.53-.13-.13-.32-.2-.6-.22s-.48,0-.62.11c-.14.1-.21.22-.21.37,0,.12.02.23.12.32.08.09.31.19.67.3.37.11.62.22.75.29.2.11.33.25.42.4s.13.33.12.51c0,.19-.08.36-.2.53-.12.16-.27.28-.48.35-.21.08-.43.11-.68.09-.32-.02-.58-.09-.79-.2-.19-.11-.35-.27-.46-.46-.11-.2-.16-.41-.15-.66h-.02ZM135.59,3.98l.6-3.53.45.09-.6,3.53-.45-.08h0ZM136.92,4.21l.83-3.47,1.17.31c.26.07.46.14.59.2.18.1.32.22.43.38.14.2.23.44.26.7.03.27,0,.55-.07.86-.07.26-.15.49-.26.67-.1.19-.22.35-.35.45-.13.11-.25.19-.39.23-.13.05-.28.06-.44.06s-.35-.02-.56-.07l-1.22-.33h.01ZM137.46,3.93l.73.18c.22.06.4.08.54.07.14-.02.24-.05.34-.1.13-.08.25-.21.36-.38.1-.17.18-.38.24-.64.08-.37.1-.66.03-.89-.06-.22-.17-.39-.33-.5-.1-.07-.29-.15-.56-.22l-.7-.19-.64,2.67h0ZM140.12,5.01l2.54-2.8.46.2.02,3.87-.49-.21.02-1.15-1.36-.57-.74.86-.46-.18v-.02ZM141.59,4.03l1.11.46v-1.06c.03-.32.04-.58.06-.78-.13.19-.27.38-.43.56l-.73.82h-.01ZM143.47,6.54l1.73-3.1,1.05.62c.23.14.41.26.51.37.15.14.26.3.32.48.09.24.1.48.06.74-.04.27-.13.53-.28.81-.14.24-.28.42-.44.57-.15.15-.3.26-.46.33-.15.07-.3.11-.43.11-.14.02-.29,0-.45-.06-.16-.05-.33-.12-.52-.23l-1.08-.65h0ZM144.08,6.42l.64.38c.19.12.36.19.5.23.13.03.25.03.35,0,.15-.04.3-.13.44-.26.15-.14.29-.32.42-.55.18-.33.26-.61.26-.85,0-.23-.07-.42-.19-.57-.07-.11-.24-.23-.48-.37l-.63-.38-1.33,2.37h.02ZM147.79,9.3l2.18-2.77,1.02.85c.18.15.31.27.39.37.12.13.19.26.23.41.04.14.04.29,0,.45-.03.16-.1.31-.21.45-.2.23-.42.37-.7.41-.27.04-.6-.1-.98-.41l-.7-.59-.89,1.14-.36-.3h.02ZM149.29,8.14l.7.58c.23.2.43.29.6.28.16,0,.31-.1.43-.25.1-.11.15-.23.15-.37,0-.13-.02-.25-.09-.35-.06-.06-.16-.17-.33-.31l-.69-.58-.77.99h0ZM150.26,11.48l2.55-2.44,1.06,1.16c.21.24.35.43.41.6.07.16.08.34.03.52-.05.19-.16.35-.29.48-.18.17-.38.26-.61.26-.23,0-.48-.11-.75-.34.04.13.07.24.07.32,0,.19-.03.4-.08.62l-.29,1.12-.38-.43.22-.86c.05-.25.09-.45.12-.59.02-.14.02-.25,0-.34-.02-.08-.04-.15-.08-.22-.02-.05-.07-.12-.16-.21l-.36-.4-1.13,1.08-.32-.35-.02.02ZM152.01,10.47l.67.74c.15.16.27.27.39.32.1.06.21.08.33.06.11-.02.21-.06.29-.15.12-.12.18-.25.18-.42,0-.16-.09-.34-.27-.54l-.75-.83-.84.81h0ZM152.73,14.26l2.7-2.25.29.37-2.7,2.24-.29-.37h0ZM154.19,16.3l2.18-3.11.27.44-1.63,2.18c-.13.18-.26.35-.38.49.19-.06.38-.11.59-.15l2.63-.61.25.41-3.65.77-.26-.41h0ZM155.05,17.74l3.7-.4.23.46-2.46,2.92-.24-.49.76-.85-.67-1.35-1.11.14-.22-.44h.01ZM156.78,17.99l.54,1.08.69-.78c.21-.23.38-.43.53-.57-.22.07-.44.11-.68.14l-1.08.12h0ZM156.81,21.09l3.27-1.21.41,1.16c.1.26.15.47.16.62.03.21,0,.41-.06.58-.09.23-.22.43-.42.6-.19.17-.43.32-.73.42-.24.1-.48.14-.7.15-.21,0-.39,0-.56-.05-.16-.05-.3-.12-.4-.2-.11-.08-.22-.2-.3-.35-.1-.14-.18-.32-.26-.51l-.43-1.22h.02ZM157.35,21.4l.25.72c.08.22.15.39.24.49.08.12.18.2.28.25.14.06.3.09.5.09s.42-.06.66-.15c.35-.12.59-.28.73-.47.14-.18.22-.37.22-.55,0-.14-.04-.33-.13-.61l-.26-.7-2.5.93h0ZM157.96,24.17l3.7.48.13.51-3.03,2.28-.12-.53.92-.66-.35-1.47-1.11-.12-.13-.49h0ZM159.59,24.82l.3,1.19.84-.61c.26-.17.48-.32.65-.42-.23,0-.47,0-.7-.02l-1.09-.14ZM126.86,62.86l.99-3.54,2.32.69-.12.41-1.86-.54-.3,1.1,1.61.49-.11.4-1.61-.47-.45,1.6-.46-.14h-.01ZM130.05,63.73l.44-3.65,1.57.19c.32.05.55.12.71.2.15.09.27.21.35.39s.11.38.09.58c-.03.25-.14.45-.33.61-.18.17-.44.25-.78.25.11.08.2.16.25.22.12.15.23.32.33.54l.5,1.07-.6-.07-.37-.82c-.12-.23-.2-.42-.28-.54-.08-.14-.15-.22-.21-.27-.06-.06-.13-.1-.2-.13-.05,0-.13-.03-.26-.04l-.54-.08-.2,1.62-.47-.05v-.02ZM130.77,61.74l1.01.13c.22.02.39.02.51,0,.12-.05.22-.1.29-.2.08-.09.12-.2.13-.32.03-.16-.02-.31-.13-.45-.1-.12-.29-.2-.55-.24l-1.12-.14-.14,1.21h0ZM133.42,64.09l1.24-3.72.52-.02,1.58,3.62-.54.02-.45-1.1-1.5.06-.35,1.13-.5.02h0ZM134.41,62.54l1.22-.05-.41-1c-.12-.31-.22-.55-.29-.76-.04.24-.09.47-.17.71,0,0-.35,1.1-.35,1.1ZM137.36,63.8l-.68-3.6.48-.1,2.37,2.46-.54-2.83.45-.08.68,3.6-.47.1-2.37-2.48.52,2.84-.44.08h0ZM140.94,63.16l-.15-.41.94-2.86c.07-.2.14-.38.21-.54l-1.87.7-.14-.4,2.4-.91.14.41-1.04,3.11-.12.32,2.15-.8.14.4-2.65.99h-.01ZM147.5,59.96l-1.67-2.76-1,.65-.22-.36,2.4-1.54.22.36-.99.64,1.67,2.76-.41.25h0ZM148.78,59.06l-1.06-3.78.42-.33,3.3,2.04-.43.33-.98-.63-1.2.93.34,1.13-.39.3h0ZM148.71,57.22l.97-.75-.89-.59c-.27-.18-.49-.33-.65-.46.09.23.18.46.25.7l.31,1.1h0ZM151.81,56.58l-2.47-2.65.51-.51,2.36,1.26.49.27-.26-.56-1.11-2.45.45-.45,2.48,2.64-.33.32-2.07-2.21,1.32,2.95-.31.31-2.86-1.52,2.12,2.26-.33.33h.01ZM154.62,53.7l-1.86-3.43.33-.41,3.68,1.22-.35.42-1.09-.39-.97,1.19.58,1.02-.32.4v-.02ZM154.15,51.92l.79-.95-1-.37c-.31-.11-.55-.21-.74-.29.16.2.29.4.41.6l.54,1.01h0ZM157.41,50.11l-1.21-.93-2.47-.15.34-.46,1.29.08c.24,0,.47.03.7.07-.08-.21-.17-.44-.27-.71l-.43-1.22.33-.46.79,2.45,1.21.93-.29.39h.01ZM3.21,79.03v14.79H.01v-14.79h3.2ZM7.76,83.1v1.49h.06c.37-.62.84-1.08,1.43-1.36s1.18-.42,1.79-.42c.78,0,1.41.11,1.91.32.5.22.89.51,1.18.89s.48.84.6,1.39.17,1.15.17,1.81v6.58h-2.9v-6.05c0-.88-.14-1.55-.41-1.98s-.75-.65-1.45-.65c-.79,0-1.36.24-1.71.71-.36.48-.53,1.26-.53,2.35v5.61h-2.9v-10.71h2.75v.02ZM22.18,83.1v1.97h-2.12v5.3c0,.49.08.83.25.99.16.16.49.25.98.25.16,0,.32,0,.47-.02s.29-.04.43-.07v2.28c-.25.04-.52.07-.82.08-.3.02-.59.02-.88.02-.45,0-.87-.03-1.28-.09-.4-.06-.75-.19-1.06-.36-.3-.18-.55-.44-.72-.76-.18-.33-.27-.77-.27-1.31v-6.31h-1.75v-1.97h1.75v-3.21h2.89v3.21h2.13ZM25.95,91.24c.43.43,1.06.65,1.87.65.58,0,1.09-.15,1.51-.45.42-.3.68-.61.77-.94h2.55c-.41,1.28-1.03,2.2-1.88,2.75-.84.55-1.86.83-3.06.83-.83,0-1.58-.14-2.24-.41-.67-.27-1.23-.65-1.69-1.14-.47-.5-.82-1.09-1.07-1.78s-.38-1.45-.38-2.28.13-1.55.39-2.23c.26-.69.63-1.29,1.1-1.79.48-.51,1.04-.9,1.7-1.19s1.39-.44,2.19-.44c.9,0,1.68.17,2.35.53.66.35,1.21.83,1.64,1.42s.73,1.27.92,2.03.26,1.55.2,2.38h-7.61c.04.95.28,1.65.71,2.07h.03ZM29.22,85.61c-.35-.38-.87-.58-1.58-.58-.46,0-.85.08-1.15.24-.31.16-.55.35-.73.59-.18.23-.31.48-.39.74-.08.27-.12.5-.13.71h4.71c-.14-.74-.38-1.31-.72-1.7h0ZM36.59,83.1v1.99h.04c.14-.33.32-.64.55-.92s.49-.52.79-.72c.3-.2.62-.36.96-.47s.69-.16,1.06-.16c.19,0,.4.03.63.1v2.74c-.14-.03-.3-.06-.49-.07-.19-.02-.37-.03-.55-.03-.53,0-.98.09-1.34.27-.37.18-.66.42-.89.74-.22.31-.38.67-.48,1.09-.09.41-.14.86-.14,1.35v4.82h-2.9v-10.71h2.75v-.02ZM44.18,83.1v1.49h.06c.37-.62.85-1.08,1.43-1.36.59-.28,1.19-.42,1.8-.42.78,0,1.41.11,1.91.32.5.22.89.51,1.18.89.28.38.48.84.6,1.39.11.55.17,1.15.17,1.81v6.58h-2.9v-6.05c0-.88-.13-1.55-.41-1.98-.27-.43-.75-.65-1.45-.65-.79,0-1.36.24-1.72.71-.35.48-.53,1.26-.53,2.35v5.61h-2.89v-10.71h2.75v.02ZM53.19,84.68c.3-.46.68-.82,1.14-1.1s.98-.47,1.56-.59c.58-.12,1.16-.17,1.74-.17.53,0,1.07.04,1.61.11.54.08,1.04.22,1.49.44s.81.53,1.1.92.43.91.43,1.56v5.57c0,.49.03.95.08,1.39.06.44.15.77.29.99h-2.94c-.06-.17-.1-.34-.13-.51-.03-.17-.06-.35-.07-.53-.46.49-1.01.83-1.63,1.02-.63.19-1.26.29-1.92.29-.5,0-.97-.06-1.41-.19-.43-.13-.81-.32-1.14-.58s-.58-.59-.76-.99c-.19-.4-.27-.88-.27-1.43,0-.61.1-1.11.31-1.5.21-.4.49-.71.82-.94.33-.24.71-.41,1.14-.53.43-.11.86-.21,1.29-.28.44-.07.87-.13,1.29-.16.42-.04.8-.1,1.12-.19.32-.08.58-.2.77-.36.19-.16.28-.39.27-.69,0-.32-.05-.57-.15-.76s-.24-.33-.41-.44c-.17-.1-.37-.17-.59-.21-.23-.04-.46-.06-.72-.06-.57,0-1.02.13-1.35.38s-.52.66-.57,1.24h-2.9c.04-.69.21-1.26.51-1.71h0ZM58.92,88.83c-.19.06-.38.11-.59.16-.21.04-.43.07-.66.1-.23.02-.47.06-.69.11-.22.04-.43.09-.65.16-.21.07-.39.16-.55.28-.15.12-.28.27-.37.45-.1.18-.14.41-.14.68s.05.48.14.66.22.32.39.42c.16.1.35.17.57.22.22.04.44.06.68.06.57,0,1.01-.1,1.32-.29s.54-.42.7-.69c.15-.27.24-.54.27-.81.04-.28.05-.5.05-.66v-1.1c-.12.11-.28.2-.46.26h0ZM68.84,85.03c-.46,0-.85.1-1.16.32-.31.21-.57.49-.77.83-.2.34-.33.71-.42,1.12-.08.4-.12.81-.12,1.21s.04.78.12,1.18.21.76.4,1.08c.18.33.43.59.75.8.31.21.69.31,1.14.31.69,0,1.22-.2,1.6-.59s.61-.92.7-1.58h2.8c-.19,1.42-.73,2.51-1.63,3.25-.9.75-2.05,1.12-3.45,1.12-.79,0-1.51-.14-2.17-.41-.66-.27-1.22-.64-1.68-1.12-.46-.49-.82-1.06-1.08-1.73-.26-.67-.39-1.41-.39-2.2s.12-1.6.35-2.31c.24-.71.59-1.32,1.05-1.84.46-.52,1.02-.93,1.69-1.21.66-.29,1.42-.44,2.28-.44.63,0,1.23.08,1.81.25.58.17,1.09.42,1.55.76.45.34.82.76,1.11,1.26.29.51.45,1.1.49,1.79h-2.84c-.19-1.23-.9-1.84-2.14-1.84h0ZM74.87,81.45v-2.42h2.89v2.42h-2.89ZM77.77,83.1v10.71h-2.89v-10.71h2.89ZM79.4,86.14c.26-.7.63-1.29,1.1-1.78.48-.49,1.05-.87,1.71-1.14.67-.26,1.41-.4,2.24-.4s1.58.14,2.26.4c.67.27,1.24.65,1.72,1.14s.84,1.08,1.1,1.78.39,1.47.39,2.33-.13,1.63-.39,2.32-.62,1.28-1.1,1.77c-.48.49-1.05.87-1.72,1.13-.68.26-1.43.4-2.26.4s-1.58-.13-2.24-.4c-.66-.26-1.23-.64-1.71-1.13-.48-.49-.85-1.08-1.1-1.77-.26-.69-.39-1.46-.39-2.32s.13-1.63.39-2.33ZM82.03,89.72c.08.4.22.77.42,1.09.19.32.45.59.78.78.32.19.73.29,1.22.29s.9-.1,1.23-.29c.34-.2.6-.46.8-.78.19-.32.34-.69.42-1.09.08-.41.12-.83.12-1.26s-.04-.85-.12-1.26-.22-.78-.42-1.1-.46-.58-.8-.78c-.33-.2-.74-.3-1.23-.3s-.9.1-1.22.3c-.33.2-.59.46-.78.78-.2.32-.34.69-.42,1.1-.08.42-.12.83-.12,1.26s.04.85.12,1.26ZM93.84,83.1v1.49h.06c.37-.62.85-1.08,1.43-1.36s1.18-.42,1.79-.42c.78,0,1.41.11,1.91.32.5.22.89.51,1.18.89.28.38.48.84.6,1.39.11.55.18,1.15.18,1.81v6.58h-2.9v-6.05c0-.88-.14-1.55-.41-1.98-.27-.43-.75-.65-1.44-.65-.79,0-1.36.24-1.72.71-.36.48-.53,1.26-.53,2.35v5.61h-2.9v-10.71h2.75v.02ZM102.86,84.68c.3-.46.68-.82,1.14-1.1s.98-.47,1.56-.59c.58-.12,1.16-.17,1.74-.17.53,0,1.07.04,1.61.11.54.08,1.04.22,1.49.44.45.22.82.53,1.1.92.29.39.43.91.43,1.56v5.57c0,.49.03.95.09,1.39.05.44.15.77.28.99h-2.94c-.05-.17-.09-.34-.13-.51-.04-.17-.06-.35-.07-.53-.46.49-1.01.83-1.63,1.02-.63.19-1.26.29-1.92.29-.5,0-.97-.06-1.41-.19-.43-.13-.82-.32-1.14-.58-.32-.26-.58-.59-.76-.99s-.28-.88-.28-1.43c0-.61.11-1.11.32-1.5.21-.4.48-.71.82-.94.33-.24.71-.41,1.14-.53.43-.11.86-.21,1.29-.28.44-.07.87-.13,1.29-.16.42-.04.79-.1,1.12-.19.33-.08.59-.2.77-.36.19-.16.28-.39.27-.69,0-.32-.05-.57-.15-.76-.1-.19-.24-.33-.41-.44-.17-.1-.36-.17-.59-.21-.22-.04-.46-.06-.72-.06-.58,0-1.02.13-1.35.38-.32.25-.52.66-.57,1.24h-2.9c.04-.69.21-1.26.51-1.71h0ZM108.57,88.83c-.18.06-.38.11-.59.16-.21.04-.43.07-.66.1-.23.02-.46.06-.69.11-.22.04-.43.09-.64.16-.21.07-.39.16-.55.28-.16.12-.28.27-.38.45-.09.18-.14.41-.14.68s.05.48.14.66c.1.18.22.32.38.42s.35.17.58.22c.21.04.44.06.67.06.57,0,1.02-.1,1.33-.29.32-.19.54-.42.7-.69.15-.27.24-.54.28-.81.03-.28.05-.5.05-.66v-1.1c-.12.11-.27.2-.46.26h-.02ZM116.44,79.03v14.79h-2.9v-14.79h2.9ZM118.01,81.78l1.96-2.93h3.2l-3.14,2.93h-2.02ZM120.99,83.1v10.71h-2.9v-10.71h2.9ZM127.39,85.32h-5.08v-2.22h8.9v2.22l-5.49,6.28h5.87v2.21h-9.69v-2.21l5.49-6.28h0ZM132.82,84.68c.3-.46.68-.82,1.14-1.1s.98-.47,1.56-.59c.58-.12,1.16-.17,1.74-.17.53,0,1.07.04,1.61.11.55.08,1.04.22,1.49.44.45.22.82.53,1.1.92s.43.91.43,1.56v5.57c0,.49.03.95.08,1.39s.15.77.29.99h-2.93c-.06-.17-.1-.34-.14-.51-.03-.17-.06-.35-.07-.53-.46.49-1.01.83-1.63,1.02-.62.19-1.27.29-1.91.29-.51,0-.97-.06-1.41-.19-.44-.13-.82-.32-1.14-.58-.32-.26-.58-.59-.76-.99s-.27-.88-.27-1.43c0-.61.1-1.11.32-1.5.21-.4.48-.71.81-.94.33-.24.71-.41,1.14-.53.43-.11.86-.21,1.29-.28.44-.07.86-.13,1.28-.16.42-.04.8-.1,1.12-.19.32-.08.58-.2.78-.36.19-.16.28-.39.26-.69,0-.32-.05-.57-.15-.76-.1-.19-.24-.33-.41-.44-.17-.1-.37-.17-.59-.21s-.47-.06-.73-.06c-.57,0-1.02.13-1.34.38-.33.25-.52.66-.57,1.24h-2.9c.04-.69.21-1.26.51-1.71h0ZM138.54,88.83c-.18.06-.38.11-.59.16-.21.04-.43.07-.66.1-.23.02-.46.06-.69.11-.22.04-.43.09-.64.16-.21.07-.39.16-.55.28-.16.12-.28.27-.38.45-.09.18-.14.41-.14.68s.05.48.14.66c.1.18.22.32.39.42s.36.17.57.22c.22.04.44.06.67.06.57,0,1.01-.1,1.32-.29.31-.19.54-.42.69-.69.15-.27.24-.54.28-.81.03-.28.05-.5.05-.66v-1.1c-.12.11-.27.2-.46.26h0ZM149.21,83.1v1.97h-2.12v5.3c0,.49.09.83.25.99.16.16.49.25.98.25.16,0,.32,0,.47-.02s.29-.04.43-.07v2.28c-.24.04-.52.07-.82.08-.3.02-.59.02-.88.02-.45,0-.87-.03-1.27-.09-.4-.06-.76-.19-1.06-.36-.3-.18-.55-.44-.72-.76-.18-.33-.26-.77-.26-1.31v-6.31h-1.76v-1.97h1.76v-3.21h2.89v3.21h2.12,0ZM152.99,91.24c.43.43,1.06.65,1.87.65.59,0,1.09-.15,1.51-.45.42-.3.68-.61.78-.94h2.55c-.41,1.28-1.03,2.2-1.88,2.75-.84.55-1.86.83-3.06.83-.83,0-1.57-.14-2.24-.41-.67-.27-1.23-.65-1.69-1.14-.46-.5-.82-1.09-1.07-1.78s-.38-1.45-.38-2.28.13-1.55.39-2.23c.26-.69.63-1.29,1.1-1.79.48-.51,1.05-.9,1.7-1.19.66-.29,1.39-.44,2.19-.44.9,0,1.68.17,2.34.53.67.35,1.22.83,1.65,1.42s.74,1.27.92,2.03c.19.76.26,1.55.21,2.38h-7.61c.04.95.28,1.65.72,2.07h0ZM156.26,85.61c-.35-.38-.88-.58-1.58-.58-.46,0-.85.08-1.15.24-.31.16-.55.35-.74.59-.18.23-.31.48-.39.74-.08.27-.12.5-.14.71h4.71c-.13-.74-.38-1.31-.72-1.7h0Z" style="fill: #000; stroke-width: 0px;"/>
    <path d="M12.76,61.74c-.94.38-1.56.27-2.58.27-.66,0-1.09.02-1.69-.27-.55-.25-.75-.8-1.36-.8-.82,0-1.01.83-1.61,1.39-.39.37-.91.16-1.3.54-.56.54-.73,1.09-.73,1.87s.11,1.35.67,1.77c.42.28.84.08,1.31.32.3.16.27.53.56.7.87.5,1.52.32,2.51.32h1.59c.2,0,.3.1.49.1h1.24l3.28-.86s6.06-1.88,20.81-7.58c13.84-5.36,46-14.56,55.77-12.2,0,0-23.81,4.33-32.88,9.31-6.03,3.31,1.98,3.31,6.24,1.08,0,0,11.45-3.54,12.6-3.42,0,0,1.76,1.28,4.89.1,3.12-1.18,13.95-1.29,13.95-1.29,0,0,14.04-.97,18.83-.97.1,0,23.1-3.42,27.78-2.78,0,0,2.6.11,3.75.33,1.14.21,4.69-.54.63-1.5,0,0-17.79-2.57-39.23.32,0,0-18.21,2.99-20.5,2.89,0,0-3.13-.22.31-.86,3.43-.64,12.8-2.13,13.73-5.77,0,0-12.48.64-13.43.75-.93.1-3.23.75-5.2.96-1.98.22-15.4,1.71-44.54,8.35,0,0-21.64,6.31-23.31,6.52-1.66.21-2.6.43-2.6.43l.02-.02Z" style="fill: #ff5100; fill-rule: evenodd; stroke-width: 0px;"/>
    <path d="M183.87.25h0c.49,0,.88.39.88.88v92.06c0,.49-.39.88-.88.88h0c-.49,0-.88-.39-.88-.88V1.13c0-.49.39-.88.88-.88Z" style="fill: #000; stroke-width: 0px;"/>
    <path d="M205.96,30.17h4.83v16.58h-4.83v-16.58ZM225.75,30.17h4.83v16.58h-5.07l-7.58-9.05-.38-.52h-.14l.14.92v8.65h-4.83v-16.58h5.09l7.56,9.43.45.57h.14l-.21-1v-9ZM245.44,30.17h4.83v16.58h-5.07l-7.58-9.05-.38-.52h-.14l.14.92v8.65h-4.83v-16.58h5.09l7.56,9.43.45.57h.14l-.21-1v-9h0ZM260.77,29.74c1.09,0,2.06.07,2.91.21,2.68.5,4.93,1.82,5.71,4.9.31,1.02.47,2.23.47,3.62s-.17,2.61-.47,3.65c-.78,3.06-3.03,4.34-5.71,4.83-.85.14-1.82.21-2.91.21s-2.06-.07-2.94-.21c-2.65-.5-4.88-1.78-5.71-4.83-.31-1.04-.45-2.25-.45-3.65s.14-2.61.45-3.62c.83-3.08,3.06-4.41,5.71-4.9.88-.14,1.85-.21,2.94-.21ZM260.77,33.79c-.88,0-1.54.05-2.04.17-.97.21-1.71.9-1.97,2.11-.12.59-.17,1.4-.17,2.42s.05,1.85.17,2.44c.26,1.16,1,1.85,1.97,2.06.5.09,1.16.14,2.04.14s1.54-.05,2.04-.14c.97-.21,1.73-.9,1.94-2.06.12-.59.19-1.42.19-2.44s-.07-1.82-.19-2.42c-.21-1.21-.92-1.9-1.94-2.11-.5-.12-1.16-.17-2.04-.17ZM288.61,30.17l-6.66,16.58h-5.76l-6.66-16.58h5.38l3.98,11.61.12.66h.14l.12-.66,4.03-11.61h5.31ZM300.29,46.75l-1-2.72h-7.25l-.99,2.72h-5.12l6.75-16.61h6.02l6.7,16.61h-5.12,0ZM297.97,40.09l-2.11-5.5-.09-.43h-.19l-.09.43-2.11,5.5h4.6-.01ZM321.99,40.5c0,5.12-2.35,6.68-8.51,6.68-1.44,0-2.44-.07-3.58-.28-1.14-.19-1.92-.59-2.7-1.18-1.52-1.16-2.3-3.46-2.3-7.23,0-3.25.57-5.38,1.71-6.66.78-.88,1.61-1.4,2.84-1.68,1.26-.31,2.39-.4,4.03-.4,6.59,0,8.46,2.11,8.46,6.3h-4.76c0-1.71-.57-2.35-3.7-2.35-1.71,0-2.56.09-3.1.73-.28.38-.36.66-.45,1.42-.09.76-.09,1.4-.09,2.63s0,1.85.09,2.61c.12.73.17,1.02.45,1.4.31.36.52.45,1.11.57.59.09,1.04.09,2.01.09,3.13-.09,3.62-.5,3.7-2.65h4.79ZM323.68,30.17h4.83v16.58h-4.83v-16.58ZM339.1,29.74c1.09,0,2.06.07,2.91.21,2.68.5,4.93,1.82,5.71,4.9.31,1.02.47,2.23.47,3.62s-.17,2.61-.47,3.65c-.78,3.06-3.03,4.34-5.71,4.83-.85.14-1.82.21-2.91.21s-2.06-.07-2.94-.21c-2.65-.5-4.88-1.78-5.71-4.83-.31-1.04-.45-2.25-.45-3.65s.14-2.61.45-3.62c.83-3.08,3.06-4.41,5.71-4.9.88-.14,1.85-.21,2.94-.21ZM339.1,33.79c-.88,0-1.54.05-2.04.17-.97.21-1.71.9-1.97,2.11-.12.59-.17,1.4-.17,2.42s.05,1.85.17,2.44c.26,1.16,1,1.85,1.97,2.06.5.09,1.16.14,2.04.14s1.54-.05,2.04-.14c.97-.21,1.73-.9,1.94-2.06.12-.59.19-1.42.19-2.44s-.07-1.82-.19-2.42c-.21-1.21-.92-1.9-1.94-2.11-.5-.12-1.16-.17-2.04-.17ZM336.07,28.58l2.27-3.46h3.91l-3.48,3.46h-2.7,0ZM362.72,30.17h4.83v16.58h-5.07l-7.58-9.05-.38-.52h-.14l.14.92v8.65h-4.83v-16.58h5.09l7.56,9.43.45.57h.14l-.21-1v-9h0ZM206.04,51.64h9.01v2.35h-6.28v2.35h5.92v2.21h-5.92v2.48h6.38v2.35h-9.11v-11.75h0ZM225.62,51.64h2.75v11.75h-2.9l-5.62-7.33-.23-.35h-.08l.08.6v7.08h-2.75v-11.75h2.9l5.62,7.53.27.37h.08l-.12-.62v-7.28ZM234.48,51.45h9.15v2.39h-6.37v2.39h6.02v2.25h-6.02v2.52h6.48v2.39h-9.26v-11.93h0ZM252.55,51.45c2.81,0,4.67,1.87,4.67,4.89v2.18c0,3.17-2.06,4.86-4.4,4.86h-7.35v-11.93h7.08ZM254.42,56.38c0-1.7-.73-2.56-2.22-2.56h-3.94v7.19h3.92c1.48,0,2.23-.85,2.23-2.54v-2.1h0ZM267.07,51.45h2.8v8.47c0,1.13-.49,2.03-1.48,2.71-.97.66-2.3,1.01-3.99,1.01s-3-.34-3.97-1.01c-.97-.68-1.47-1.58-1.47-2.71v-8.47h2.8v7.89c0,1.31.73,1.91,2.64,1.91s2.68-.6,2.68-1.91v-7.89h0ZM282.96,59.05c0,1.69-.44,2.88-1.31,3.56s-2.32,1.02-4.33,1.02c-3.58,0-5.8-.83-5.8-6.2s2.22-6.24,5.81-6.24c4.23,0,5.54,1.41,5.57,4.26h-2.78c0-.7-.19-1.19-.58-1.48-.39-.29-1.12-.43-2.22-.43-1.28,0-1.94.1-2.42.63-.43.55-.53,1.48-.53,3.26s.1,2.68.51,3.24c.48.48,1.14.6,2.42.58,1.11,0,1.87-.15,2.27-.46.39-.31.6-.89.6-1.74h2.79ZM293.68,63.38l-.82-2.25h-5.32l-.8,2.25h-2.97l4.76-11.93h3.36l4.74,11.93h-2.95,0ZM292.04,58.83l-1.72-4.7-.05-.22h-.12l-.05.22-1.74,4.7h3.68,0ZM308.53,59.05c0,1.69-.44,2.88-1.31,3.56s-2.32,1.02-4.33,1.02c-3.58,0-5.8-.83-5.8-6.2s2.22-6.24,5.81-6.24c4.23,0,5.54,1.41,5.57,4.26h-2.78c0-.7-.19-1.19-.58-1.48-.39-.29-1.12-.43-2.22-.43-1.28,0-1.94.1-2.42.63-.43.55-.53,1.48-.53,3.26s.1,2.68.51,3.24c.48.48,1.14.6,2.42.58,1.11,0,1.87-.15,2.27-.46.39-.31.6-.89.6-1.74h2.79ZM310.44,51.45h2.8v11.93h-2.8v-11.93ZM321.14,51.19c.75,0,1.41.05,1.99.15,1.79.37,3.29,1.26,3.83,3.48.2.73.31,1.6.31,2.61s-.1,1.88-.32,2.61c-.53,2.2-2.03,3.09-3.82,3.44-.58.1-1.24.15-1.99.15s-1.41-.05-1.99-.15c-1.79-.36-3.31-1.24-3.83-3.44-.2-.73-.31-1.6-.31-2.61s.1-1.87.31-2.61c.53-2.22,2.05-3.1,3.83-3.48.58-.1,1.24-.15,1.99-.15h0ZM321.14,61.25c.65,0,1.16-.05,1.53-.14.77-.2,1.36-.73,1.57-1.7.12-.49.17-1.16.17-1.98,0-1.64-.19-2.59-.75-3.14-.27-.29-.6-.48-.99-.56-.39-.1-.9-.15-1.53-.15s-1.14.05-1.53.15c-1.24.29-1.74,1.26-1.74,3.7,0,3.22.85,3.82,3.27,3.82h0ZM319.27,50.29l1.48-2.51h2.32l-2.22,2.51h-1.59,0ZM337.9,51.45h2.8v11.93h-2.95l-5.71-7.45-.24-.36h-.09l.09.61v7.19h-2.8v-11.93h2.95l5.71,7.65.27.37h.09l-.12-.63v-7.4.02Z" style="fill: #000; stroke-width: 0px;"/>
  </g>
</svg>